<svg xmlns="http://www.w3.org/2000/svg" xmlns:xlink="http://www.w3.org/1999/xlink" width="300" zoomAndPan="magnify" viewBox="0 0 224.87999 112.499997" height="150" preserveAspectRatio="xMidYMid meet" version="1.0"><defs><g/></defs><g fill="#558776" fill-opacity="1"><g transform="translate(6.986885, 91.097997)"><g><path d="M 51.675781 -39.160156 C 51.566406 -41.75 51.566406 -44.339844 51.675781 -47.035156 C 52.105469 -52.105469 53.183594 -57.394531 52.539062 -62.464844 C 52.214844 -65.375 50.378906 -67.75 47.25 -67.75 C 44.445312 -67.75 41.964844 -65.375 41.964844 -62.464844 C 42.074219 -60.628906 42.074219 -58.796875 42.074219 -56.960938 L 41.535156 -57.5 C 39.375 -59.441406 37.003906 -61.0625 34.628906 -62.570312 C 29.558594 -65.914062 24.273438 -68.289062 18.449219 -70.015625 C 17.800781 -70.230469 17.261719 -70.230469 16.828125 -70.121094 C 14.5625 -70.878906 12.191406 -71.523438 9.816406 -71.742188 C 6.148438 -72.066406 3.019531 -69.800781 2.15625 -66.238281 C 1.292969 -62.679688 3.238281 -59.550781 5.179688 -56.851562 C 9.167969 -51.675781 13.808594 -47.144531 18.878906 -43.042969 L 20.496094 -41.75 C 22.007812 -40.238281 23.519531 -38.730469 24.921875 -37.109375 C 28.589844 -33.335938 32.039062 -29.453125 35.386719 -25.460938 C 36.464844 -24.164062 37.542969 -22.871094 38.511719 -21.578125 C 38.730469 -20.929688 39.054688 -20.390625 39.269531 -19.851562 C 39.699219 -18.988281 40.671875 -16.9375 40.132812 -15.75 C 40.132812 -15.425781 40.132812 -15.101562 39.808594 -14.78125 C 38.945312 -13.484375 36.789062 -13.269531 35.386719 -13.160156 C 33.011719 -12.945312 30.746094 -12.945312 28.480469 -13.160156 C 27.1875 -13.269531 25.890625 -13.484375 24.597656 -13.917969 C 23.300781 -14.886719 22.117188 -16.074219 21.035156 -17.152344 C 19.09375 -19.203125 17.800781 -21.898438 16.828125 -24.488281 C 14.347656 -31.609375 14.023438 -39.269531 11.757812 -46.390625 C 10.894531 -48.976562 8.738281 -49.949219 6.148438 -49.625 C 3.992188 -49.300781 2.375 -47.25 1.941406 -45.308594 C 1.292969 -42.179688 1.941406 -38.835938 2.375 -35.816406 C 2.804688 -32.363281 3.238281 -28.914062 4.097656 -25.566406 C 5.71875 -19.632812 6.90625 -13.59375 7.550781 -7.550781 C 7.765625 -6.472656 8.089844 -5.5 8.738281 -4.746094 C 9.0625 -2.804688 10.140625 -0.972656 11.328125 0.214844 C 12.40625 1.292969 14.132812 1.292969 15.210938 0.214844 C 16.613281 -0.972656 17.367188 -2.695312 17.800781 -4.53125 C 19.851562 -3.238281 22.117188 -2.265625 24.488281 -1.726562 C 27.941406 -0.753906 32.039062 -0.324219 35.707031 -0.863281 L 36.03125 -0.863281 C 42.828125 -1.1875 50.164062 -6.257812 50.378906 -13.269531 C 50.8125 -16.074219 50.164062 -18.988281 48.976562 -21.683594 C 48.332031 -24.597656 46.820312 -27.292969 44.878906 -29.773438 C 42.074219 -33.335938 38.835938 -36.679688 35.707031 -40.023438 C 32.472656 -43.582031 29.019531 -47.035156 25.566406 -50.378906 L 21.144531 -54.585938 C 23.949219 -53.941406 26.863281 -52.96875 29.558594 -51.78125 C 34.738281 -49.410156 39.484375 -46.066406 42.613281 -41.425781 C 42.722656 -41.425781 42.722656 -41.320312 42.828125 -41.320312 C 43.476562 -36.25 45.308594 -29.128906 50.597656 -30.421875 C 52.105469 -30.855469 52.96875 -32.472656 52.539062 -33.875 C 52.214844 -35.707031 51.78125 -37.328125 51.675781 -39.160156 Z M 51.675781 -39.160156 "/></g></g></g><g fill="#558776" fill-opacity="1"><g transform="translate(52.077664, 91.097997)"><g><path d="M 55.019531 -4.207031 C 57.609375 -4.960938 57.285156 -8.199219 56.851562 -10.355469 C 55.773438 -14.5625 54.371094 -18.664062 52.539062 -22.65625 C 48.976562 -30.855469 43.691406 -38.191406 37.109375 -44.339844 C 36.464844 -44.988281 35.386719 -44.230469 35.492188 -43.476562 C 34.953125 -43.90625 34.523438 -44.339844 33.984375 -44.769531 L 36.789062 -46.28125 C 43.691406 -50.164062 50.8125 -54.480469 54.585938 -61.601562 C 55.234375 -62.894531 53.726562 -64.082031 52.644531 -63.21875 L 52.324219 -62.894531 C 52.324219 -64.621094 51.460938 -66.238281 49.734375 -66.671875 C 47.574219 -67.316406 45.203125 -65.375 43.476562 -64.40625 C 35.0625 -59.550781 24.488281 -54.371094 15.535156 -50.488281 C 15.320312 -54.480469 15.210938 -58.363281 15.101562 -62.355469 L 15.101562 -63.109375 C 15.101562 -63.109375 14.996094 -63.21875 14.996094 -63.109375 C 14.242188 -58.578125 13.699219 -54.046875 13.269531 -49.410156 C 12.945312 -49.300781 12.730469 -49.085938 12.40625 -48.761719 L 12.730469 -58.472656 C 12.835938 -60.953125 12.730469 -63.542969 13.378906 -65.699219 C 15.425781 -71.523438 6.582031 -75.085938 3.667969 -69.800781 C 3.453125 -69.367188 3.238281 -69.042969 3.128906 -68.613281 C 0.863281 -68.074219 0.648438 -65.484375 0.753906 -63.542969 C 0.753906 -61.601562 0.863281 -59.660156 0.863281 -57.714844 C 1.1875 -50.273438 1.511719 -42.9375 2.050781 -35.601562 C 2.589844 -28.265625 3.453125 -20.929688 4.316406 -13.59375 C 4.640625 -10.355469 4.640625 -7.121094 5.933594 -4.097656 C 7.011719 -1.726562 9.601562 -0.214844 12.082031 -0.539062 C 15.101562 0.539062 18.339844 -0.109375 20.929688 -2.265625 C 21.683594 -2.914062 21.792969 -3.992188 21.578125 -4.855469 C 21.144531 -7.335938 20.171875 -9.710938 19.632812 -11.757812 C 19.203125 -14.132812 18.664062 -16.503906 18.339844 -18.878906 C 17.585938 -24.921875 16.9375 -30.960938 16.398438 -36.894531 C 17.152344 -37.21875 18.015625 -37.542969 18.988281 -37.972656 L 20.714844 -38.621094 C 23.839844 -36.355469 26.429688 -33.441406 29.019531 -30.53125 C 34.953125 -24.058594 40.671875 -16.722656 44.664062 -8.628906 C 44.664062 -7.550781 44.878906 -6.582031 45.417969 -5.609375 C 46.28125 -3.777344 48.222656 -2.589844 50.273438 -2.589844 C 53.617188 -2.589844 55.667969 -5.394531 55.34375 -8.308594 C 54.804688 -14.5625 44.125 -33.550781 40.023438 -38.621094 C 46.28125 -31.71875 51.027344 -24.058594 54.265625 -15.320312 C 55.019531 -13.160156 58.363281 -6.042969 54.910156 -4.640625 C 54.695312 -4.53125 54.804688 -4.097656 55.019531 -4.207031 Z M 55.019531 -4.207031 "/></g></g></g><g fill="#558776" fill-opacity="1"><g transform="translate(96.19756, 91.097997)"><g><path d="M 40.777344 -46.28125 C 40.238281 -49.515625 39.59375 -52.863281 38.621094 -56.097656 C 37.542969 -59.226562 36.03125 -62.246094 34.523438 -65.160156 C 33.984375 -66.132812 32.902344 -66.347656 32.039062 -66.023438 C 31.285156 -67.425781 30.207031 -69.257812 28.804688 -70.121094 C 27.507812 -70.878906 25.675781 -70.878906 24.164062 -70.554688 C 22.761719 -70.664062 21.359375 -70.230469 19.957031 -69.691406 C 16.503906 -68.9375 13.917969 -65.589844 12.082031 -61.601562 C 11.867188 -61.601562 11.542969 -61.707031 11.21875 -61.601562 C 11.652344 -62.785156 12.082031 -63.972656 12.621094 -65.160156 C 13.054688 -66.238281 13.699219 -67.316406 14.347656 -68.398438 C 14.457031 -68.613281 14.242188 -68.71875 14.132812 -68.503906 C 12.296875 -66.132812 10.894531 -63.542969 9.816406 -60.738281 C 9.710938 -60.628906 9.710938 -60.519531 9.601562 -60.519531 C 2.375 -48.4375 0.429688 -34.199219 2.589844 -20.390625 C 3.667969 -14.023438 5.824219 -7.550781 10.894531 -3.238281 C 13.808594 -0.863281 17.800781 0.429688 21.359375 -0.214844 C 22.546875 -0.109375 23.734375 -0.109375 24.921875 -0.214844 C 27.941406 -0.648438 30.421875 -2.050781 32.472656 -4.097656 C 33.984375 -5.394531 35.277344 -6.90625 36.464844 -8.523438 C 40.023438 -13.59375 40.996094 -20.171875 41.535156 -26.105469 C 42.289062 -32.902344 41.859375 -39.59375 40.777344 -46.28125 Z M 27.292969 -14.886719 C 26.96875 -13.59375 26.429688 -12.40625 25.785156 -11.21875 C 25.136719 -10.03125 24.164062 -9.0625 22.871094 -8.628906 C 18.230469 -7.226562 14.457031 -11.652344 12.730469 -15.210938 C 13.808594 -14.5625 15.210938 -14.242188 16.503906 -14.5625 C 16.9375 -14.671875 17.367188 -14.886719 17.691406 -15.101562 C 16.074219 -22.117188 15.210938 -29.453125 15.535156 -36.789062 C 15.75 -39.269531 15.964844 -41.75 16.398438 -44.230469 C 16.503906 -44.339844 16.503906 -44.445312 16.613281 -44.664062 C 17.476562 -49.085938 18.878906 -53.507812 20.929688 -57.5 C 21.359375 -58.253906 21.792969 -59.117188 22.4375 -59.550781 C 16.289062 -46.605469 16.074219 -30.746094 19.09375 -16.722656 C 19.632812 -17.691406 19.742188 -18.769531 19.527344 -19.957031 C 18.230469 -27.941406 18.125 -36.25 19.09375 -44.230469 C 19.632812 -48.332031 20.605469 -52.324219 21.792969 -56.207031 C 22.117188 -57.285156 22.546875 -58.6875 23.195312 -59.875 L 23.734375 -59.875 C 23.839844 -59.875 24.058594 -59.765625 24.164062 -59.660156 C 24.597656 -58.902344 24.921875 -58.039062 25.246094 -57.285156 C 26 -55.449219 26.648438 -53.507812 27.292969 -51.566406 C 27.617188 -50.058594 27.832031 -48.4375 28.15625 -46.820312 C 29.019531 -41.535156 29.34375 -36.03125 29.773438 -30.636719 C 29.773438 -25.351562 29.128906 -19.957031 27.292969 -14.886719 Z M 27.292969 -14.886719 "/></g></g></g><g fill="#558776" fill-opacity="1"><g transform="translate(131.687459, 91.097997)"><g><path d="M 40.777344 -46.28125 C 40.238281 -49.515625 39.59375 -52.863281 38.621094 -56.097656 C 37.542969 -59.226562 36.03125 -62.246094 34.523438 -65.160156 C 33.984375 -66.132812 32.902344 -66.347656 32.039062 -66.023438 C 31.285156 -67.425781 30.207031 -69.257812 28.804688 -70.121094 C 27.507812 -70.878906 25.675781 -70.878906 24.164062 -70.554688 C 22.761719 -70.664062 21.359375 -70.230469 19.957031 -69.691406 C 16.503906 -68.9375 13.917969 -65.589844 12.082031 -61.601562 C 11.867188 -61.601562 11.542969 -61.707031 11.21875 -61.601562 C 11.652344 -62.785156 12.082031 -63.972656 12.621094 -65.160156 C 13.054688 -66.238281 13.699219 -67.316406 14.347656 -68.398438 C 14.457031 -68.613281 14.242188 -68.71875 14.132812 -68.503906 C 12.296875 -66.132812 10.894531 -63.542969 9.816406 -60.738281 C 9.710938 -60.628906 9.710938 -60.519531 9.601562 -60.519531 C 2.375 -48.4375 0.429688 -34.199219 2.589844 -20.390625 C 3.667969 -14.023438 5.824219 -7.550781 10.894531 -3.238281 C 13.808594 -0.863281 17.800781 0.429688 21.359375 -0.214844 C 22.546875 -0.109375 23.734375 -0.109375 24.921875 -0.214844 C 27.941406 -0.648438 30.421875 -2.050781 32.472656 -4.097656 C 33.984375 -5.394531 35.277344 -6.90625 36.464844 -8.523438 C 40.023438 -13.59375 40.996094 -20.171875 41.535156 -26.105469 C 42.289062 -32.902344 41.859375 -39.59375 40.777344 -46.28125 Z M 27.292969 -14.886719 C 26.96875 -13.59375 26.429688 -12.40625 25.785156 -11.21875 C 25.136719 -10.03125 24.164062 -9.0625 22.871094 -8.628906 C 18.230469 -7.226562 14.457031 -11.652344 12.730469 -15.210938 C 13.808594 -14.5625 15.210938 -14.242188 16.503906 -14.5625 C 16.9375 -14.671875 17.367188 -14.886719 17.691406 -15.101562 C 16.074219 -22.117188 15.210938 -29.453125 15.535156 -36.789062 C 15.75 -39.269531 15.964844 -41.75 16.398438 -44.230469 C 16.503906 -44.339844 16.503906 -44.445312 16.613281 -44.664062 C 17.476562 -49.085938 18.878906 -53.507812 20.929688 -57.5 C 21.359375 -58.253906 21.792969 -59.117188 22.4375 -59.550781 C 16.289062 -46.605469 16.074219 -30.746094 19.09375 -16.722656 C 19.632812 -17.691406 19.742188 -18.769531 19.527344 -19.957031 C 18.230469 -27.941406 18.125 -36.25 19.09375 -44.230469 C 19.632812 -48.332031 20.605469 -52.324219 21.792969 -56.207031 C 22.117188 -57.285156 22.546875 -58.6875 23.195312 -59.875 L 23.734375 -59.875 C 23.839844 -59.875 24.058594 -59.765625 24.164062 -59.660156 C 24.597656 -58.902344 24.921875 -58.039062 25.246094 -57.285156 C 26 -55.449219 26.648438 -53.507812 27.292969 -51.566406 C 27.617188 -50.058594 27.832031 -48.4375 28.15625 -46.820312 C 29.019531 -41.535156 29.34375 -36.03125 29.773438 -30.636719 C 29.773438 -25.351562 29.128906 -19.957031 27.292969 -14.886719 Z M 27.292969 -14.886719 "/></g></g></g><g fill="#558776" fill-opacity="1"><g transform="translate(167.177346, 91.097997)"><g><path d="M 47.898438 -3.128906 C 51.027344 -2.804688 53.078125 -6.796875 51.566406 -9.386719 C 51.136719 -10.03125 50.703125 -10.574219 50.273438 -11.113281 C 50.378906 -11.652344 50.488281 -12.296875 50.488281 -12.835938 C 50.488281 -14.457031 49.300781 -15.644531 48.113281 -16.503906 C 46.820312 -17.476562 44.988281 -17.691406 43.367188 -17.800781 C 41.320312 -17.910156 39.160156 -17.800781 37.003906 -17.800781 C 31.71875 -17.691406 26.324219 -17.046875 21.253906 -15.75 C 21.253906 -15.964844 21.359375 -16.074219 21.359375 -16.398438 L 21.359375 -16.613281 C 21.253906 -16.503906 21.144531 -16.503906 21.144531 -16.503906 L 20.820312 -22.007812 C 20.605469 -27.726562 20.28125 -33.441406 19.851562 -39.160156 C 19.417969 -44.554688 18.988281 -50.058594 18.449219 -55.558594 C 17.910156 -60.089844 17.800781 -65.269531 14.886719 -69.042969 C 14.78125 -69.367188 14.347656 -69.152344 14.457031 -68.828125 C 15.644531 -66.671875 15.964844 -64.296875 16.074219 -61.921875 C 16.183594 -60.089844 16.398438 -56.097656 16.289062 -53.507812 L 15.75 -56.636719 C 15.210938 -60.519531 14.5625 -64.40625 13.808594 -68.289062 C 12.945312 -68.9375 11.976562 -69.257812 11.003906 -69.476562 C 10.140625 -69.90625 9.0625 -70.339844 7.984375 -70.445312 C 4.640625 -70.984375 1.511719 -69.042969 1.832031 -65.484375 C 2.480469 -55.34375 3.558594 -45.203125 4.53125 -34.953125 C 5.070312 -29.882812 5.609375 -24.703125 6.257812 -19.632812 C 6.148438 -15.425781 6.148438 -11.21875 5.933594 -7.011719 C 5.933594 -5.933594 5.824219 -4.960938 5.824219 -3.882812 C 5.609375 -1.078125 8.628906 0.972656 11.21875 0.324219 C 23.195312 -2.914062 35.601562 -3.992188 47.898438 -3.128906 Z M 4.097656 -61.816406 C 3.992188 -63.867188 2.914062 -67.210938 5.394531 -68.179688 C 5.933594 -68.398438 6.582031 -68.503906 7.011719 -68.503906 C 6.796875 -68.179688 6.582031 -67.75 6.472656 -67.425781 L 6.148438 -63.757812 C 5.285156 -60.953125 5.824219 -57.175781 5.933594 -54.585938 C 6.042969 -49.300781 6.148438 -44.015625 6.257812 -38.730469 L 6.257812 -32.796875 C 5.71875 -40.457031 5.285156 -48.113281 4.640625 -55.882812 C 4.421875 -57.824219 4.316406 -59.875 4.097656 -61.816406 Z M 46.066406 1.292969 C 47.46875 1.402344 47.46875 -0.972656 46.066406 -1.078125 C 39.914062 -1.1875 33.765625 -0.972656 27.617188 -0.429688 C 24.921875 -0.214844 22.222656 0.109375 19.417969 0.429688 C 16.613281 0.863281 13.378906 1.078125 10.894531 2.265625 C 10.789062 2.375 10.789062 2.480469 10.894531 2.480469 C 13.699219 2.804688 16.828125 1.941406 19.632812 1.726562 C 22.546875 1.402344 25.460938 1.1875 28.371094 1.078125 C 34.304688 0.753906 40.132812 0.863281 46.066406 1.292969 Z M 46.066406 1.292969 "/></g></g></g></svg>