<svg width="122" height="58" viewBox="0 0 122 58" fill="none" xmlns="http://www.w3.org/2000/svg">
<path d="M31.8407 26.7768C31.7814 25.4416 31.7814 24.1064 31.8407 22.7168C32.0737 20.1028 32.6583 17.376 32.3088 14.762C32.133 13.2616 31.1375 12.0372 29.441 12.0372C27.9202 12.0372 26.5753 13.2616 26.5753 14.762C26.6346 15.7085 26.6346 16.653 26.6346 17.5996L26.3423 17.3216C25.171 16.3207 23.8853 15.485 22.5975 14.7076C19.8483 12.9837 16.9826 11.7593 13.8246 10.8691C13.473 10.7584 13.1807 10.7584 12.9456 10.8148C11.7171 10.4241 10.4314 10.0918 9.14366 9.979C7.1548 9.81184 5.45824 10.9799 4.99015 12.8166C4.52206 14.6512 5.57685 16.2643 6.62952 17.6559C8.79206 20.3243 11.3083 22.6605 14.0575 24.775L14.9344 25.4416C15.7541 26.221 16.5738 26.9984 17.3342 27.8341C19.323 29.7796 21.1933 31.7814 23.0084 33.8396C23.593 34.5082 24.1776 35.1748 24.7029 35.8414C24.8215 36.1757 24.9973 36.4536 25.1138 36.7315C25.3468 37.1766 25.8742 38.2339 25.5819 38.8461C25.5819 39.0132 25.5819 39.1804 25.4061 39.3455C24.938 40.0141 23.7688 40.1249 23.0084 40.1813C21.7207 40.2921 20.4922 40.2921 19.2637 40.1813C18.5626 40.1249 17.8595 40.0141 17.1584 39.7906C16.4552 39.2911 15.8134 38.6789 15.2267 38.1231C14.174 37.0658 13.473 35.6762 12.9456 34.341C11.6006 30.6697 11.4248 26.7205 10.1963 23.0491C9.72824 21.7159 8.55907 21.2145 7.1548 21.3816C5.98564 21.5488 5.10876 22.6061 4.87366 23.607C4.52206 25.2201 4.87366 26.944 5.10876 28.5007C5.34175 30.281 5.57685 32.0593 6.04282 33.7852C6.92182 36.8443 7.5657 39.9577 7.91518 43.0732C8.03168 43.6291 8.20748 44.1305 8.55907 44.5192C8.73487 45.5201 9.31946 46.4646 9.96334 47.0768C10.5479 47.6327 11.4841 47.6327 12.0687 47.0768C12.8291 46.4646 13.2379 45.5765 13.473 44.63C14.5849 45.2966 15.8134 45.798 17.0991 46.0759C18.9714 46.5774 21.1933 46.7989 23.1821 46.521H23.3579C27.0433 46.3539 31.0211 43.7398 31.1375 40.1249C31.3727 38.6789 31.0211 37.1766 30.3772 35.787C30.0277 34.2846 29.208 32.895 28.1553 31.6162C26.6346 29.7796 24.8787 28.0557 23.1821 26.3318C21.4284 24.4971 19.556 22.7168 17.6837 20.993L15.286 18.824C16.8068 19.1563 18.3869 19.6577 19.8483 20.27C22.6569 21.4924 25.2303 23.2163 26.9269 25.6088C26.9862 25.6088 26.9862 25.6632 27.0433 25.6632C27.3949 28.2772 28.3883 31.9485 31.2562 31.2819C32.0737 31.0584 32.5418 30.2246 32.3088 29.5016C32.133 28.5571 31.8979 27.7214 31.8407 26.7768Z" fill="#7752FE"/>
<path d="M58.103 44.7972C59.5073 44.4085 59.3315 42.739 59.0964 41.6273C58.5118 39.4583 57.7514 37.3437 56.758 35.2856C54.8264 31.0584 51.9606 27.2763 48.3917 24.1065C48.0422 23.7722 47.4577 24.1628 47.5149 24.5515C47.2226 24.33 46.9896 24.1065 46.6973 23.8849L48.218 23.1056C51.9607 21.1037 55.8219 18.8784 57.8679 15.2071C58.2195 14.5405 57.4019 13.9283 56.8152 14.3733L56.6416 14.5405C56.6416 13.6503 56.1735 12.8166 55.2373 12.5931C54.066 12.2608 52.7803 13.2617 51.8442 13.7611C47.2819 16.2644 41.5483 18.9348 36.6937 20.9366C36.5772 18.8784 36.5179 16.8766 36.4586 14.8184V14.4297C36.4586 14.4297 36.4014 14.3733 36.4014 14.4297C35.9926 16.7658 35.6982 19.1019 35.4652 21.4924C35.2894 21.5488 35.1729 21.6596 34.9971 21.8267L35.1729 16.8202C35.2301 15.5414 35.1729 14.2062 35.5245 13.0945C36.6344 10.0918 31.8391 8.25514 30.2591 10.9799C30.1426 11.2035 30.0261 11.3706 29.9668 11.5922C28.7383 11.8701 28.6218 13.2053 28.679 14.2062C28.679 15.2071 28.7383 16.208 28.7383 17.2109C28.9141 21.0474 29.0899 24.8294 29.3822 28.6115C29.6745 32.3936 30.1426 36.1757 30.6107 39.9578C30.7864 41.6273 30.7864 43.2948 31.4875 44.8535C32.0721 46.076 33.4764 46.8553 34.8213 46.6882C36.4586 47.244 38.2145 46.9097 39.6187 45.7981C40.0275 45.4637 40.0868 44.9079 39.9703 44.4628C39.7352 43.184 39.2078 41.9596 38.9155 40.9043C38.6826 39.6799 38.3903 38.4574 38.2145 37.233C37.8057 34.1175 37.4541 31.004 37.1618 27.9449C37.5706 27.7778 38.0387 27.6106 38.5661 27.3891L39.5022 27.0548C41.1967 28.2228 42.601 29.7252 44.0052 31.2256C47.2226 34.5626 50.3234 38.3447 52.488 42.5174C52.488 43.0733 52.6045 43.5727 52.8968 44.0742C53.3649 45.0187 54.4176 45.6309 55.5296 45.6309C57.3426 45.6309 58.4546 44.1849 58.2788 42.6826C57.9865 39.4583 52.1958 29.6688 49.9718 27.0548C53.3649 30.6133 55.9384 34.5626 57.6942 39.0676C58.103 40.1813 59.9161 43.8506 58.0437 44.5736C57.9272 44.63 57.9865 44.8535 58.103 44.7972Z" fill="#7752FE"/>
<path d="M74.3034 23.1055C74.0111 21.438 73.6616 19.7121 73.1342 18.0446C72.5496 16.4314 71.7299 14.8747 70.9124 13.3723C70.6201 12.8709 70.0334 12.7601 69.5653 12.9273C69.1565 12.2043 68.5719 11.2598 67.8115 10.8147C67.1083 10.424 66.115 10.424 65.2953 10.5912C64.5349 10.5348 63.7745 10.7583 63.0141 11.0362C61.1418 11.4249 59.7396 13.1508 58.7441 15.207C58.6276 15.207 58.4518 15.1526 58.276 15.207C58.5112 14.5968 58.7441 13.9846 59.0364 13.3723C59.2715 12.8165 59.621 12.2607 59.9726 11.7028C60.0319 11.5921 59.9154 11.5377 59.8561 11.6485C58.8606 12.8709 58.1002 14.2061 57.5157 15.6521C57.4585 15.7085 57.4585 15.7648 57.3992 15.7648C53.4808 21.9938 52.426 29.3344 53.5973 36.4535C54.1818 39.7362 55.351 43.0732 58.1002 45.2965C59.6803 46.521 61.845 47.1876 63.7745 46.8553C64.4184 46.9096 65.0623 46.9096 65.7062 46.8553C67.3434 46.6317 68.6884 45.9087 69.8004 44.8535C70.6201 44.1848 71.3211 43.4055 71.965 42.5717C73.8946 39.9577 74.422 36.5663 74.7143 33.5072C75.1231 30.003 74.8901 26.5532 74.3034 23.1055ZM66.9918 39.2911C66.816 39.9577 66.5238 40.5699 66.1743 41.1821C65.8227 41.7944 65.2953 42.2938 64.5942 42.5173C62.078 43.2403 60.0319 40.9586 59.0957 39.1239C59.6803 39.4582 60.4407 39.6234 61.1418 39.4583C61.3769 39.4019 61.6099 39.2911 61.7857 39.1803C60.9088 35.5634 60.4407 31.7813 60.6165 27.9992C60.733 26.7204 60.8495 25.4416 61.0846 24.1628C61.1418 24.1064 61.1418 24.052 61.2011 23.9392C61.6692 21.6595 62.4296 19.3798 63.5415 17.3216C63.7745 16.9329 64.0096 16.4878 64.3591 16.2643C61.0253 22.9383 60.9088 31.1147 62.546 38.3446C62.8383 37.8451 62.8976 37.2893 62.7812 36.6771C62.078 32.5607 62.0208 28.2771 62.546 24.1628C62.8383 22.0482 63.3657 19.99 64.0096 17.9882C64.1854 17.4323 64.4184 16.7094 64.77 16.0971H65.0623C65.1195 16.0971 65.2381 16.1535 65.2953 16.2079C65.5304 16.5986 65.7062 17.0437 65.882 17.4323C66.2908 18.3789 66.6424 19.3798 66.9918 20.3807C67.1676 21.158 67.2841 21.9938 67.4599 22.8276C67.928 25.5523 68.1038 28.3899 68.3368 31.1711C68.3368 33.8959 67.9873 36.6771 66.9918 39.2911Z" fill="#7752FE"/>
<path d="M93.5468 23.1055C93.2545 21.438 92.905 19.7121 92.3776 18.0446C91.793 16.4314 90.9733 14.8747 90.1558 13.3723C89.8635 12.8709 89.2768 12.7601 88.8087 12.9273C88.3999 12.2043 87.8153 11.2598 87.0549 10.8147C86.3517 10.424 85.3584 10.424 84.5387 10.5912C83.7783 10.5348 83.0179 10.7583 82.2575 11.0362C80.3852 11.4249 78.983 13.1508 77.9875 15.207C77.8711 15.207 77.6953 15.1526 77.5195 15.207C77.7546 14.5968 77.9875 13.9846 78.2798 13.3723C78.5149 12.8165 78.8644 12.2607 79.216 11.7028C79.2753 11.5921 79.1588 11.5377 79.0995 11.6485C78.104 12.8709 77.3437 14.2061 76.7591 15.6521C76.7019 15.7085 76.7019 15.7648 76.6426 15.7648C72.7242 21.9938 71.6694 29.3344 72.8407 36.4535C73.4253 39.7362 74.5944 43.0732 77.3437 45.2965C78.9237 46.521 81.0884 47.1876 83.0179 46.8553C83.6618 46.9096 84.3057 46.9096 84.9496 46.8553C86.5869 46.6317 87.9318 45.9087 89.0438 44.8535C89.8635 44.1848 90.5646 43.4055 91.2084 42.5717C93.138 39.9577 93.6654 36.5663 93.9577 33.5072C94.3665 30.003 94.1335 26.5532 93.5468 23.1055ZM86.2353 39.2911C86.0595 39.9577 85.7672 40.5699 85.4177 41.1821C85.0661 41.7944 84.5387 42.2938 83.8376 42.5173C81.3214 43.2403 79.2753 40.9586 78.3391 39.1239C78.9237 39.4582 79.6841 39.6234 80.3852 39.4583C80.6203 39.4019 80.8533 39.2911 81.0291 39.1803C80.1522 35.5634 79.6841 31.7813 79.8599 27.9992C79.9764 26.7204 80.0929 25.4416 80.328 24.1628C80.3852 24.1064 80.3852 24.052 80.4445 23.9392C80.9126 21.6595 81.673 19.3798 82.7849 17.3216C83.0179 16.9329 83.253 16.4878 83.6025 16.2643C80.2687 22.9383 80.1522 31.1147 81.7895 38.3446C82.0817 37.8451 82.1411 37.2893 82.0246 36.6771C81.3214 32.5607 81.2642 28.2771 81.7895 24.1628C82.0817 22.0482 82.6091 19.99 83.253 17.9882C83.4288 17.4323 83.6618 16.7094 84.0134 16.0971H84.3057C84.3629 16.0971 84.4815 16.1535 84.5387 16.2079C84.7738 16.5986 84.9496 17.0437 85.1254 17.4323C85.5342 18.3789 85.8858 19.3798 86.2353 20.3807C86.4111 21.158 86.5275 21.9938 86.7033 22.8276C87.1714 25.5523 87.3472 28.3899 87.5802 31.1711C87.5802 33.8959 87.2307 36.6771 86.2353 39.2911Z" fill="#7752FE"/>
<path d="M116.651 45.3529C118.348 45.5201 119.46 43.4619 118.64 42.1267C118.407 41.7944 118.172 41.5144 117.939 41.2365C117.996 40.9586 118.056 40.6263 118.056 40.3484C118.056 39.5126 117.412 38.9004 116.768 38.4574C116.067 37.9559 115.073 37.8451 114.194 37.7888C113.085 37.7324 111.913 37.7888 110.744 37.7888C107.878 37.8451 104.953 38.1774 102.204 38.846C102.204 38.7353 102.261 38.6789 102.261 38.5117V38.401C102.204 38.4574 102.145 38.4574 102.145 38.4574L101.969 35.6198C101.853 32.6715 101.677 29.7251 101.444 26.7768C101.209 23.9956 100.976 21.1581 100.683 18.3225C100.391 15.9864 100.332 13.316 98.7517 11.3706C98.6945 11.2034 98.4594 11.3142 98.5187 11.4813C99.1626 12.593 99.3363 13.8174 99.3956 15.0419C99.4549 15.9864 99.5714 18.0446 99.5121 19.3798L99.2198 17.7667C98.9275 15.7649 98.5759 13.761 98.1671 11.7592C97.699 11.4249 97.1738 11.2598 96.6464 11.147C96.1783 10.9255 95.5937 10.7019 95.0091 10.6476C93.1961 10.3697 91.4995 11.3706 91.6732 13.2052C92.0248 18.4333 92.6094 23.6613 93.1368 28.9458C93.429 31.5598 93.7213 34.2302 94.0729 36.8442C94.0136 39.0132 94.0136 41.1822 93.8971 43.3511C93.8971 43.9069 93.8378 44.4084 93.8378 44.9642C93.7213 46.4102 95.3586 47.4675 96.7629 47.1332C103.257 45.4637 109.984 44.9078 116.651 45.3529ZM92.9017 15.0963C92.8445 14.039 92.2599 12.3151 93.6048 11.8156C93.8971 11.7028 94.2487 11.6485 94.4817 11.6485C94.3652 11.8156 94.2487 12.0372 94.1894 12.2043L94.0136 14.0953C93.5455 15.5413 93.8378 17.4888 93.8971 18.824C93.9564 21.5488 94.0136 24.2735 94.0729 26.9983V30.0574C93.7806 26.1082 93.5455 22.161 93.1961 18.1553C93.0775 17.1544 93.0203 16.0972 92.9017 15.0963ZM115.658 47.6326C116.418 47.689 116.418 46.4646 115.658 46.4102C112.322 46.3538 108.988 46.4646 105.654 46.7445C104.193 46.8553 102.729 47.0224 101.209 47.1876C99.6879 47.4111 97.9342 47.5219 96.5871 48.1341C96.5299 48.1905 96.5299 48.2449 96.5871 48.2449C98.1078 48.412 99.8044 47.9669 101.325 47.8562C102.905 47.689 104.485 47.5783 106.063 47.5219C109.281 47.3547 112.441 47.4111 115.658 47.6326Z" fill="#7752FE"/>
</svg>
